<svg xmlns="http://www.w3.org/2000/svg" viewBox="0 0 256 256" width="256" height="256" role="img" aria-label="cmProjectX app icon">
  <defs>
    <radialGradient id="cmxTile" cx="20%" cy="10%" r="120%">
      <stop offset="0" stop-color="#00B6AA"/>
      <stop offset="0.55" stop-color="#007768"/>
      <stop offset="1" stop-color="#004C3D"/>
    </radialGradient>
    <linearGradient id="cmxGloss" x1="0" y1="0" x2="0" y2="1">
      <stop offset="0" stop-color="#ffffff" stop-opacity="0.14"/>
      <stop offset="0.4" stop-color="#ffffff" stop-opacity="0"/>
    </linearGradient>
  </defs>
  <rect x="8" y="8" width="240" height="240" rx="54" fill="url(#cmxTile)"/>
  <rect x="8" y="8" width="240" height="240" rx="54" fill="url(#cmxGloss)"/>
  <g transform="translate(36,70) scale(2)">
    <rect x="6" y="14" width="26" height="5" rx="2.5" fill="#eafff9"/>
    <rect x="6" y="26" width="34" height="5" rx="2.5" fill="#eafff9"/>
    <rect x="6" y="38" width="20" height="5" rx="2.5" fill="#9af3e7"/>
    <path d="M40 28.5 C62 28.5 64 16 76 16" fill="none" stroke="#bfe3ff" stroke-width="2" opacity="0.9"/>
    <path d="M40 28.5 C64 28.5 66 29 82 29" fill="none" stroke="#bfe3ff" stroke-width="2" opacity="0.9"/>
    <path d="M40 28.5 C62 28.5 64 42 74 42" fill="none" stroke="#bfe3ff" stroke-width="2" opacity="0.75"/>
    <circle cx="76" cy="16" r="4.6" fill="#4DA3FF"/>
    <circle cx="82" cy="29" r="5.4" fill="#9ccbff"/>
    <circle cx="74" cy="42" r="4" fill="#4DA3FF"/>
  </g>
</svg>
